<svg width="800" height="800" viewBox="0 0 512 512" xmlns="http://www.w3.org/2000/svg" xmlns:xlink="http://www.w3.org/1999/xlink" fill="#000000" xml:space="preserve" overflow="hidden"><g id="5151e0c8492e5103c096af88a51eafb7"><path d="M295.474 319.537C296.3 323.672 296.714 330.907 296.714 341.244L296.714 422.241 274.387 422.241 274.387 342.112C274.387 333.015 273.519 326.218 271.783 321.708 270.046 317.201 266.966 313.604 262.542 310.916 258.118 308.233 252.929 306.885 246.975 306.885 237.465 306.885 229.258 309.904 222.353 315.94 215.448 321.977 211.996 333.43 211.996 350.299L211.996 422.241 189.669 422.241 189.669 290.512 209.763 290.512 209.763 309.242C219.438 294.77 233.413 287.535 251.688 287.535 259.626 287.535 266.924 288.961 273.581 291.814 280.238 294.667 285.221 298.409 288.528 303.04 291.835 307.671 294.15 313.17 295.474 319.537ZM511.5 423.052C505.216 424.375 499.592 425.036 494.631 425.036 486.527 425.036 480.242 423.755 475.777 421.191 471.312 418.628 468.17 415.257 466.35 411.082 464.531 406.91 463.621 398.12 463.621 384.724L463.621 305.182 415.146 305.182C415.257 305.302 415.381 305.401 415.493 305.521 426.657 317.511 432.239 334.38 432.239 356.129 432.239 357.451 432.197 359.437 432.115 362.082L333.876 362.082C334.703 376.554 338.796 387.635 346.155 395.325 353.515 403.015 362.694 406.86 373.692 406.86 381.879 406.86 388.866 404.711 394.655 400.41 400.443 396.11 405.033 389.247 408.424 379.82L431.495 382.673C427.856 396.152 421.117 406.612 411.276 414.055 401.435 421.498 388.866 425.219 373.568 425.219 354.3 425.219 339.023 419.285 327.736 407.419 316.448 395.557 310.804 378.91 310.804 357.493 310.804 335.331 316.51 318.131 327.921 305.892 339.333 293.654 354.135 287.535 372.327 287.535 374.526 287.535 376.681 287.63 378.781 287.816L463.62 287.816 463.62 259.237 485.823 259.237 485.823 287.816 508.274 287.816 508.274 305.181 485.823 305.181 485.823 385.963C485.823 392.33 486.216 396.424 487.001 398.243 487.787 400.062 489.068 401.51 490.847 402.584 492.624 403.659 495.167 404.197 498.475 404.197 500.956 404.197 504.222 403.907 508.275 403.328L511.5 423.052ZM408.672 343.725C407.679 332.644 404.867 324.333 400.237 318.793 393.125 310.192 383.905 305.893 372.576 305.893 362.322 305.893 353.701 309.325 346.714 316.188 339.727 323.052 335.86 332.231 335.116 343.725L408.672 343.725ZM157.881 395.42C153.846 395.42 150.422 396.855 147.602 399.774 144.782 402.672 143.385 406.179 143.385 410.322 143.385 414.357 144.782 417.851 147.602 420.795 150.422 423.739 153.846 425.22 157.881 425.22 162.02 425.22 165.543 423.74 168.441 420.795 171.347 417.852 172.791 414.357 172.791 410.322 172.791 406.278 171.348 402.772 168.441 399.833 165.542 396.875 162.02 395.42 157.881 395.42ZM301.047 267.196C289.47 272.282 274.875 274.825 257.262 274.825 226.334 274.825 204.917 268.871 193.009 256.963 192.959 256.913 192.913 256.86 192.863 256.811L198.467 271.724 139.627 271.724 130.526 241.706 66.737 241.706 57.872 271.724 0.5 271.724 68.846 89.883 130.138 89.883 175.791 211.377 226.252 208.216C227.41 216.899 229.766 223.516 233.322 228.063 239.111 235.424 247.38 239.102 258.13 239.102 266.151 239.102 272.333 237.223 276.674 233.458 281.016 229.695 283.187 225.333 283.187 220.372 283.187 215.658 281.12 211.44 276.985 207.72 272.85 203.998 263.257 200.485 248.208 197.176 223.566 191.638 205.994 184.277 195.492 175.098 184.907 165.918 179.615 154.218 179.615 139.994 179.615 130.65 182.323 121.822 187.74 113.512 193.156 105.201 201.302 98.671 212.176 93.914 223.05 89.159 237.955 86.781 256.892 86.781 280.129 86.781 297.846 91.104 310.043 99.743 322.24 108.385 329.496 122.133 331.812 140.986L278.847 144.088C277.442 135.901 274.485 129.947 269.978 126.226 265.472 122.505 259.249 120.645 251.311 120.645 244.778 120.645 239.858 122.03 236.55 124.8 233.242 127.571 231.589 130.94 231.589 134.908 231.589 137.804 232.953 140.41 235.682 142.722 238.328 145.122 244.613 147.355 254.536 149.42 279.096 154.713 296.688 160.069 307.314 165.483 317.94 170.899 325.672 177.62 330.509 185.639 332.988 189.748 334.821 194.111 336.03 198.718L336.03 89.883 429.431 89.883C449.773 89.883 465.009 94.72 475.139 104.395 485.269 114.071 490.334 127.838 490.334 145.701 490.334 164.058 484.813 178.406 473.774 188.742 462.734 199.081 445.885 204.247 423.228 204.247L392.466 204.247 392.466 271.725 336.028 271.725 336.028 226.857C334.454 233.143 331.812 239.128 328.089 244.809 321.638 254.649 312.624 262.111 301.047 267.196ZM392.464 167.407 406.233 167.407C417.065 167.407 424.673 165.527 429.056 161.762 433.439 158 435.629 153.185 435.629 147.312 435.629 141.606 433.728 136.769 429.924 132.799 426.12 128.83 418.967 126.845 408.465 126.845L392.464 126.845 392.464 167.407ZM118.871 202.386 98.801 137.018 78.938 202.386 118.871 202.386Z" stroke="none" stroke-width="1" stroke-linecap="butt" stroke-linejoin="miter" stroke-miterlimit="4" fill="#4D708C" fill-opacity="1" display="inline"/></g></svg>