<svg width="800" height="800" viewBox="0 -139 512 512" xmlns="http://www.w3.org/2000/svg" xmlns:xlink="http://www.w3.org/1999/xlink" overflow="hidden"><g fill="#1A1919"><path d="M49.7635 20.9796C47.1809 18.387 43.5979 16.7898 39.6037 16.7898 35.6195 16.7898 32.0641 18.387 29.5141 20.9796L29.4489 20.9796C26.8738 23.5546 25.2766 27.1477 25.2766 31.1168 25.2766 35.1085 26.8738 38.679 29.4489 41.229L29.5141 41.2992C32.0641 43.8692 35.6195 45.4439 39.6037 45.4439 43.5979 45.4439 47.1809 43.8692 49.7635 41.2992L49.7936 41.229C52.3787 38.679 53.9558 35.1085 53.9558 31.1168 53.9558 27.1477 52.3787 23.5546 49.7936 20.9796L49.7635 20.9796ZM39.6037 217.105C43.5979 217.105 47.1809 215.478 49.7635 212.933L49.7936 212.857C52.3787 210.318 53.9558 206.724 53.9558 202.775 53.9558 198.784 52.3787 195.208 49.7936 192.621L49.7635 192.621C47.1809 190.003 43.5979 188.421 39.6037 188.421 35.6195 188.421 32.0641 190.003 29.5141 192.621L29.4489 192.621C26.8738 195.208 25.2766 198.784 25.2766 202.775 25.2766 206.724 26.8738 210.318 29.4489 212.857L29.5141 212.933C32.0641 215.478 35.6195 217.105 39.6037 217.105ZM117.665 173.695C121.213 172.762 124.425 170.486 126.388 167.041L126.652 166.537C128.397 163.275 128.715 159.503 127.782 156.156 126.842 152.583 124.54 149.414 121.103 147.441L120.9 147.305C117.55 145.465 113.739 145.064 110.233 146.019 106.67 146.909 103.469 149.281 101.518 152.696 99.542 156.091 99.1308 159.992 100.076 163.583 101.051 167.116 103.336 170.308 106.753 172.303L106.773 172.303C110.198 174.272 114.07 174.625 117.665 173.695ZM54.2993 102.266C50.5383 98.5145 45.348 96.1626 39.6037 96.1626 33.8668 96.1626 28.6917 98.5145 24.9382 102.266 21.1972 106.012 18.8904 111.179 18.8904 116.924 18.8904 122.668 21.1972 127.858 24.9382 131.647 28.6917 135.375 33.8668 137.704 39.6037 137.704 45.348 137.704 50.5383 135.375 54.2993 131.647 58.0503 127.858 60.3571 122.668 60.3571 116.924 60.3571 111.179 58.0503 106.012 54.2993 102.266ZM46.035 77.8464C54.3745 79.2204 61.8615 83.2147 67.5858 88.9791L67.6284 88.9791C68.5386 89.8867 69.4237 90.8872 70.2486 91.8851L84.553 83.6108C82.6299 77.7988 82.5396 71.7234 84.0867 66.0242 86.1251 58.3943 91.0722 51.5643 98.4889 47.2843L98.7296 47.1313C106.066 42.9816 114.403 42.1166 121.928 44.1551 129.55 46.1986 136.425 51.1681 140.705 58.5724L140.705 58.5949C144.965 65.959 145.828 74.4088 143.797 82.0161 141.768 89.6435 136.804 96.5212 129.395 100.776L127.441 101.93 127.243 101.93C120.391 105.192 112.856 105.703 105.936 103.88 100.254 102.376 95.0438 99.2016 90.9618 94.7009L76.6774 102.953C78.3197 107.295 79.2274 111.977 79.2274 116.924 79.2274 121.845 78.3197 126.594 76.6774 130.96L90.9618 139.189C95.0438 134.618 100.254 131.516 105.936 130.007 113.561 127.923 122.01 128.808 129.395 133.114L129.868 133.334 129.868 133.357C137.002 137.682 141.791 144.357 143.797 151.896 145.828 159.458 144.965 167.913 140.705 175.292L140.447 175.806 140.417 175.764C136.139 182.877 129.395 187.696 121.95 189.735 114.315 191.748 105.863 190.888 98.4889 186.646L98.4889 186.588C91.0722 182.3 86.1251 175.455 84.0867 167.84 82.5396 162.166 82.6299 156.091 84.553 150.281L70.2486 142.027C69.4237 143.025 68.5386 143.98 67.6284 144.888L67.5858 144.933C61.8615 150.678 54.3745 154.669 46.035 155.998L46.035 172.527C51.9775 173.768 57.2981 176.739 61.4653 180.909L61.4879 180.951C67.0743 186.513 70.5344 194.26 70.5344 202.775 70.5344 211.265 67.0743 218.968 61.4879 224.557L61.4653 224.645C55.8388 230.231 48.1212 233.691 39.6037 233.691 31.1313 233.691 23.3936 230.231 17.7797 224.645L17.7571 224.645 17.7571 224.557C12.1657 218.968 8.69802 211.265 8.69802 202.775 8.69802 194.26 12.1657 186.513 17.7571 180.951L17.7571 180.909 17.7797 180.909C21.9444 176.739 27.275 173.768 33.1949 172.527L33.1949 155.998C24.8579 154.669 17.3835 150.678 11.6692 144.933L11.6091 144.888C4.47312 137.727 0.00501471 127.858 0.00501471 116.924 0.00501471 106.012 4.47312 96.1426 11.6091 88.9791L11.6692 88.9791C17.3835 83.2147 24.8579 79.2204 33.1949 77.8464L33.1949 61.3881C27.275 60.1044 21.9444 57.1331 17.7797 52.986L17.7571 52.986 17.7571 52.9408C12.1657 47.3294 8.69802 39.6343 8.69802 31.1168 8.69802 22.6445 12.1657 14.8817 17.7571 9.29281L17.7797 9.27024C23.3936 3.66129 31.1313 0.203644 39.6037 0.203644 48.1212 0.203644 55.8388 3.66129 61.4653 9.27024L61.4653 9.29281 61.4879 9.29281C67.0743 14.8817 70.5344 22.6445 70.5344 31.1168 70.5344 39.6343 67.0743 47.3294 61.4879 52.9408L61.4653 52.986C57.2981 57.1331 51.9775 60.1044 46.035 61.3881L46.035 77.8464ZM126.388 66.8692 126.265 66.6887C124.295 63.3639 121.145 61.1474 117.665 60.1921 114.07 59.2368 110.198 59.638 106.753 61.6138L106.773 61.6138C103.336 63.5645 101.036 66.7539 100.076 70.3294 99.1308 73.8773 99.542 77.7988 101.518 81.2163L101.586 81.3041C103.564 84.6764 106.716 86.9381 110.233 87.8483 113.769 88.8487 117.708 88.4249 121.103 86.4491L121.286 86.3614C124.628 84.3655 126.855 81.2163 127.782 77.7561 128.73 74.1857 128.352 70.2842 126.388 66.8692Z" stroke="none" stroke-width="1" stroke-linecap="butt" stroke-linejoin="miter" stroke-miterlimit="4" fill="#4D708C" fill-opacity="1"/><path d="M189.859 71.7034 205.821 71.7034 205.821 120.426 228.839 94.9666 247.977 94.9666 220.188 124.463 248.093 161.853 229.817 161.853 205.821 128.455 205.821 161.853 189.859 161.853 189.859 71.7034ZM266.519 128.698C266.519 136.995 272.487 149.058 286.864 149.058 295.76 149.058 301.615 144.422 304.651 138.346 306.241 135.398 306.973 132.246 307.219 128.966 307.329 125.792 306.73 122.492 305.381 119.561 302.583 113.243 296.372 107.764 286.746 107.764 273.838 107.764 266.519 118.23 266.519 128.588L266.519 128.698ZM323.053 161.853 307.083 161.853 307.083 152.23C302.833 160.012 293.935 163.919 284.55 163.919 263.104 163.919 250.56 147.217 250.56 128.345 250.56 107.275 265.787 92.9031 284.55 92.9031 296.733 92.9031 304.162 99.3595 307.083 104.725L307.083 94.9666 323.053 94.9666 323.053 161.853ZM341.126 107.275 332.854 107.275 332.854 94.9666 341.126 94.9666 341.126 91.1981C341.126 71.3248 356.238 70.1263 367.696 69.9934L367.696 82.2794C363.667 82.2794 357.095 82.2794 357.095 91.682L357.095 94.9666 367.696 94.9666 367.696 107.275 357.095 107.275 357.095 161.853 341.126 161.853 341.126 107.275ZM378.55 71.7034 394.507 71.7034 394.507 120.426 417.53 94.9666 436.668 94.9666 408.879 124.463 436.779 161.853 418.503 161.853 394.507 128.455 394.507 161.853 378.55 161.853 378.55 71.7034ZM455.21 128.698C455.21 136.995 461.175 149.058 475.555 149.058 484.439 149.058 490.293 144.422 493.335 138.346 494.929 135.398 495.664 132.246 495.905 128.966 496.015 125.792 495.416 122.492 494.064 119.561 491.271 113.243 485.06 107.764 475.437 107.764 462.527 107.764 455.21 118.23 455.21 128.588L455.21 128.698ZM511.739 161.853 495.774 161.853 495.774 152.23C491.512 160.012 482.621 163.919 473.241 163.919 451.795 163.919 439.261 147.217 439.261 128.345 439.261 107.275 454.483 92.9031 473.241 92.9031 485.416 92.9031 492.853 99.3595 495.774 104.725L495.774 94.9666 511.739 94.9666 511.739 161.853Z" stroke="none" stroke-width="1" stroke-linecap="butt" stroke-linejoin="miter" stroke-miterlimit="4" fill="#4D708C" fill-opacity="1"/></g></svg>